<?xml version="1.0" standalone="no"?>
<!DOCTYPE svg PUBLIC "-//W3C//DTD SVG 20010904//EN"
 "http://www.w3.org/TR/2001/REC-SVG-20010904/DTD/svg10.dtd">
<svg version="1.0" xmlns="http://www.w3.org/2000/svg"
 width="260.000000pt" height="260.000000pt" viewBox="0 0 260.000000 260.000000"
 preserveAspectRatio="xMidYMid meet">
<metadata>
Created by potrace 1.14, written by Peter Selinger 2001-2017
</metadata>
<g transform="translate(0.000000,260.000000) scale(0.100000,-0.100000)"
fill="#000000" stroke="none">
<path d="M1542 2307 c-12 -13 -22 -27 -22 -31 0 -5 -18 -68 -41 -140 -23 -72
-58 -187 -80 -256 -21 -69 -59 -192 -85 -275 -25 -82 -50 -166 -56 -185 -5
-19 -22 -75 -38 -125 -117 -368 -290 -942 -290 -962 0 -29 42 -63 76 -63 43 0
65 31 96 130 15 47 52 168 83 270 31 102 59 192 62 200 3 8 7 20 9 27 1 6 7
27 12 45 6 18 31 98 56 178 24 80 61 199 82 265 21 66 39 125 40 130 1 6 43
143 93 305 51 162 94 302 95 310 2 8 12 39 21 67 27 83 5 132 -61 133 -19 0
-38 -8 -52 -23z"/>
<path d="M734 1868 c-16 -13 -145 -139 -287 -282 -214 -215 -257 -263 -257
-286 0 -24 46 -74 281 -309 300 -300 307 -305 358 -263 25 20 36 65 22 90 -5
9 -114 121 -243 249 l-233 233 233 233 c128 127 237 239 242 247 17 26 11 60
-15 85 -30 31 -62 32 -101 3z"/>
<path d="M1767 1870 c-21 -16 -26 -28 -23 -55 1 -19 5 -38 9 -42 4 -5 112
-113 239 -240 l233 -233 -234 -233 c-128 -129 -237 -241 -242 -249 -15 -27 -6
-69 20 -89 53 -42 59 -38 343 245 146 144 272 274 281 287 10 13 17 33 17 46
0 15 -82 104 -281 302 -303 303 -306 305 -362 261z"/>
</g>
</svg>
